<svg width="48" height="48" viewBox="0 0 48 48" fill="none" xmlns="http://www.w3.org/2000/svg">
<rect width="48" height="48" fill="white"/>
<path fill-rule="evenodd" clip-rule="evenodd" d="M30.4 12.8H12.8V16H21.6C22.0418 16 22.4 16.3581 22.4 16.8C22.4 17.2418 22.0418 17.6 21.6 17.6H8.79999C8.35816 17.6 7.99999 17.2418 7.99999 16.8C7.99999 16.3581 8.35816 16 8.79999 16H11.2V12.8C11.2 11.9163 11.9163 11.2 12.8 11.2H30.4C31.2836 11.2 32 11.9163 32 12.8V16H38.1882C39.3122 16 40.3538 16.5897 40.9322 17.5536L44.344 23.2399C44.6125 23.6875 44.767 24.1931 44.7953 24.7125C44.7984 24.7413 44.8 24.7704 44.8 24.8C44.8 24.8096 44.7998 24.8193 44.7995 24.8289C44.7998 24.848 44.8 24.8672 44.8 24.8863V30.4C44.8 31.2836 44.0836 32 43.2 32H39.92C39.5494 33.8257 37.9352 35.2 36 35.2C34.0648 35.2 32.4506 33.8257 32.08 32H22.32C21.9494 33.8257 20.3352 35.2 18.4 35.2C16.4648 35.2 14.8506 33.8257 14.48 32H12.8C11.9163 32 11.2 31.2836 11.2 30.4V24H5.59999C5.15816 24 4.79999 23.6418 4.79999 23.2C4.79999 22.7581 5.15816 22.4 5.59999 22.4H15.2C15.6418 22.4 16 22.7581 16 23.2C16 23.6418 15.6418 24 15.2 24H12.8V30.4H14.48C14.8506 28.5742 16.4648 27.2 18.4 27.2C20.3352 27.2 21.9494 28.5742 22.32 30.4H30.4V12.8ZM32.08 30.4H32V17.6H35.2V24.8C35.2 25.2418 35.5582 25.6 36 25.6H43.2V30.4H39.92C39.5494 28.5742 37.9352 27.2 36 27.2C34.0648 27.2 32.4506 28.5742 32.08 30.4ZM42.9341 24L39.5602 18.3768C39.271 17.8948 38.7502 17.6 38.1882 17.6H36.8V24H42.9341ZM20.8 31.2C20.8 31.4805 20.7519 31.7497 20.6634 32C20.334 32.9321 19.445 33.6 18.4 33.6C17.355 33.6 16.466 32.9321 16.1366 32C16.0481 31.7497 16 31.4805 16 31.2C16 30.9194 16.0481 30.6502 16.1366 30.4C16.466 29.4678 17.355 28.8 18.4 28.8C19.445 28.8 20.334 29.4678 20.6634 30.4C20.7519 30.6502 20.8 30.9194 20.8 31.2ZM38.2739 31.9697C38.3557 31.7281 38.4 31.4692 38.4 31.2C38.4 30.9194 38.3519 30.6502 38.2634 30.4C37.934 29.4678 37.045 28.8 36 28.8C34.955 28.8 34.066 29.4678 33.7366 30.4C33.733 30.41 33.7295 30.4201 33.7261 30.4302C33.6443 30.6718 33.6 30.9307 33.6 31.2C33.6 31.4805 33.6481 31.7497 33.7366 32C34.066 32.9321 34.955 33.6 36 33.6C37.045 33.6 37.934 32.9321 38.2634 32C38.267 31.9899 38.2705 31.9798 38.2739 31.9697Z" fill="#44444D"/>
<path d="M6.39999 20C6.39999 19.5581 6.75816 19.2 7.19999 19.2H18.4C18.8418 19.2 19.2 19.5581 19.2 20C19.2 20.4418 18.8418 20.8 18.4 20.8H7.19999C6.75816 20.8 6.39999 20.4418 6.39999 20Z" fill="#44444D"/>
</svg>
